<?xml version="1.0" encoding="UTF-8"?><svg id="Capa_2" xmlns="http://www.w3.org/2000/svg" viewBox="0 0 27 27"><defs><style>.cls-1{fill:#fff;}</style></defs><g id="Capa_1-2"><g><circle cx="13.5" cy="13.5" r="13.5"/><g id="_7QwtUk"><path class="cls-1" d="M21,8.2c.01,.42-.16,.77-.4,1.1-.86,1.19-1.73,2.38-2.59,3.57-1.79,2.47-3.58,4.95-5.36,7.43-.3,.41-.64,.75-1.15,.86-.64,.14-1.21-.02-1.67-.49-1.24-1.24-2.48-2.48-3.72-3.72-.47-.47-.95-.94-1.41-1.41-.47-.48-.62-1.06-.41-1.7,.2-.63,.65-1.02,1.31-1.14,.58-.1,1.09,.08,1.5,.5,1.2,1.2,2.39,2.39,3.59,3.59,.21,.21,.21,.21,.38-.03,1.87-2.59,3.74-5.17,5.61-7.76,.43-.59,.85-1.19,1.29-1.78,.46-.62,1.2-.86,1.89-.63,.71,.24,1.15,.86,1.15,1.59Z"/></g></g></g></svg>