<?xml version="1.0" encoding="UTF-8"?><svg id="Capa_2" xmlns="http://www.w3.org/2000/svg" viewBox="0 0 95 27"><defs><style>.cls-1{fill:#fff;}.cls-2{fill:#2a353d;}</style></defs><g id="Capa_1-2"><g><rect class="cls-2" width="95" height="27" rx="2.4" ry="2.4"/><g id="DGSvtn.tif"><g><path class="cls-1" d="M5.04,7.38c.15-.67,.46-1.25,1.01-1.68,.47-.37,1.01-.57,1.6-.57,1.57-.01,3.14,0,4.71,0,.31,0,.54,.18,.6,.45,.05,.23-.08,.48-.31,.6-.11,.06-.23,.05-.35,.05-1.47,0-2.95,0-4.42,0-.44,0-.86,.08-1.2,.39-.33,.29-.52,.66-.55,1.11,0,.07,0,.14,0,.21,0,4.54,0,9.08,0,13.62,0,.68,.27,1.19,.87,1.52,.27,.15,.57,.16,.87,.16,2.22,0,4.44,0,6.65,0,2.65,0,5.3,0,7.95,0,.56,0,1.03-.15,1.38-.59,.2-.25,.33-.53,.33-.86,0-1.52,0-3.05,0-4.57,0-.12,0-.24,.03-.35,.04-.26,.27-.46,.51-.47,.24-.01,.49,.17,.56,.42,.02,.09,.03,.18,.03,.27,0,1.51,0,3.02,0,4.53,0,1.36-.89,2.43-2.19,2.7-.22,.04-.44,.06-.66,.06-4.86,0-9.72,0-14.58,0-1.47,0-2.47-.78-2.82-2.2,0-.02-.02-.04-.02-.06,0-4.91,0-9.82,0-14.73Z"/><path class="cls-1" d="M23.49,3.07c.6,0,1.17,.27,1.66,.75,.23,.23,.47,.46,.68,.7,.8,.9,.8,2.28,0,3.19-.07,.08-.14,.15-.22,.23-3.08,3.08-6.16,6.15-9.23,9.23-.16,.16-.34,.27-.56,.33-1.41,.39-2.83,.78-4.24,1.17-.55,.15-.9-.2-.75-.75,.39-1.43,.79-2.87,1.18-4.3,.05-.17,.13-.3,.25-.43,3.13-3.13,6.26-6.26,9.4-9.39,.48-.48,1.06-.73,1.84-.73Zm-7.64,12.99c.08,0,.11-.06,.14-.09,2.49-2.49,4.98-4.98,7.48-7.47,.1-.1,.1-.16,0-.27-.74-.73-1.48-1.47-2.21-2.21-.11-.11-.17-.1-.27,0-.46,.47-.92,.93-1.38,1.39-2.02,2.02-4.04,4.04-6.06,6.06-.09,.09-.16,.15-.03,.28,.75,.74,1.49,1.48,2.23,2.22,.03,.03,.07,.06,.1,.09ZM25.31,6.15c0-.36-.09-.64-.29-.87-.25-.29-.53-.57-.83-.82-.34-.28-.73-.35-1.16-.24-.48,.12-.74,.52-1.07,.83-.07,.07,0,.11,.04,.15,.76,.76,1.51,1.51,2.27,2.27,.08,.08,.13,.08,.2,0,.15-.16,.32-.31,.47-.48,.24-.25,.36-.56,.36-.85Zm-10.55,10.42s-.03-.04-.05-.06c-.58-.58-1.16-1.16-1.74-1.74-.1-.1-.13-.02-.15,.06-.22,.79-.43,1.58-.65,2.37-.04,.13,0,.15,.12,.12,.21-.06,.43-.12,.64-.18,.56-.15,1.12-.31,1.69-.47,.05-.01,.13,0,.14-.1Z"/></g></g><g><path class="cls-1" d="M35.02,10.66h3.58c2.65,0,4.46,1.57,4.46,3.92s-1.81,3.92-4.46,3.92h-3.58v-7.84Zm3.51,6.61c1.82,0,3-1.06,3-2.69s-1.18-2.69-3-2.69h-1.99v5.38h1.99Z"/><path class="cls-1" d="M50.81,17.28v1.22h-6.14v-7.84h5.97v1.22h-4.45v2.04h3.95v1.2h-3.95v2.16h4.62Z"/><path class="cls-1" d="M54.16,11.9h-2.71v-1.23h6.94v1.23h-2.71v6.61h-1.52v-6.61Z"/><path class="cls-1" d="M64.84,16.69h-4.09l-.81,1.81h-1.57l3.68-7.84h1.5l3.69,7.84h-1.59l-.82-1.81Zm-.5-1.14l-1.54-3.43-1.53,3.43h3.07Z"/><path class="cls-1" d="M68.28,10.66h1.52v6.61h4.28v1.23h-5.8v-7.84Z"/><path class="cls-1" d="M75.28,10.66h1.52v6.61h4.28v1.23h-5.8v-7.84Z"/><path class="cls-1" d="M88.41,17.28v1.22h-6.14v-7.84h5.97v1.22h-4.45v2.04h3.95v1.2h-3.95v2.16h4.62Z"/></g></g></g></svg>