<?xml version="1.0" encoding="UTF-8"?><svg id="Capa_2" xmlns="http://www.w3.org/2000/svg" viewBox="0 0 27 27"><defs><style>.cls-1{fill:#fff;}</style></defs><g id="Capa_1-2"><g><circle cx="13.5" cy="13.5" r="13.5"/><path class="cls-1" d="M18.97,20.45c-.46-.02-.84-.21-1.16-.53-1.31-1.32-2.63-2.63-3.95-3.95q-.19-.19-.38,0c-1.32,1.32-2.64,2.64-3.96,3.96-.45,.45-1,.63-1.62,.46-1.2-.34-1.59-1.79-.73-2.69,.65-.67,1.32-1.33,1.98-1.99,.69-.69,1.38-1.39,2.08-2.07,.12-.12,.12-.18,0-.3-1.34-1.33-2.68-2.67-4.01-4.01-.52-.52-.66-1.24-.36-1.86,.5-1.04,1.8-1.27,2.62-.47,.74,.72,1.46,1.46,2.19,2.19,.62,.62,1.23,1.23,1.84,1.85,.12,.12,.19,.12,.31,0,1.33-1.34,2.66-2.67,3.99-4,.49-.49,1.07-.64,1.74-.42,.12,.04,.24,.11,.36,.16l.46,.46s.01,.05,.02,.07c.41,.7,.25,1.52-.37,2.12-1.31,1.27-2.58,2.57-3.87,3.86q-.19,.19,0,.38c1.32,1.32,2.65,2.65,3.97,3.97,.37,.37,.54,.81,.5,1.33-.02,.28-.14,.51-.25,.76l-.46,.46c-.3,.15-.61,.27-.96,.26Z"/></g></g></svg>